<?xml version="1.0"?>  <svg xmlns="http://www.w3.org/2000/svg" xmlns:xlink="http://www.w3.org/1999/xlink" version="1.1" id="Ebene_1" x="0px" y="0px" viewBox="0 0 740.9 96.3" style="enable-background:new 0 0 740.9 96.3;" xml:space="preserve">  <path class="st0" d="M570.9,27.6c0.1,2.4,0.1,4.9,0.3,7.3c-0.4-0.1-0.9-0.1-1.5-0.1h-1.9h-1.7c-0.6,0-1,0-1.3,0.1 c0-0.1,0.1-0.3,0.1-0.6s0.1-0.7,0.1-1.1c0-0.4,0.1-0.8,0.1-1.2s0-0.6,0-0.7l-0.1-0.1c-0.6,1.3-1.3,2.4-2.3,3.1 c-1,0.7-2.3,1.1-4.1,1.1c-1.5,0-2.8-0.3-3.9-0.9c-1.1-0.6-2-1.4-2.6-2.4c-0.7-1-1.2-2.3-1.5-3.7s-0.5-2.9-0.5-4.5s0.2-3.1,0.7-4.5 c0.4-1.4,1.1-2.5,1.8-3.5c0.8-1,1.7-1.8,2.8-2.3c1.1-0.6,2.2-0.9,3.4-0.9c1.3,0,2.5,0.3,3.6,0.9s1.8,1.4,2.3,2.4h0.1 c0-2.7,0-5.2-0.1-7.6s-0.1-4.8-0.3-7.4c0.4,0.1,0.9,0.1,1.5,0.2c0.6,0,1.2,0.1,1.9,0.1s1.3,0,1.9-0.1c0.6,0,1.1-0.1,1.5-0.2 c-0.1,2.5-0.2,5-0.3,7.4s-0.1,5.1-0.1,8.1v2.9C570.8,22.5,570.8,25.2,570.9,27.6 M557.1,28.5c0.2,1,0.5,1.9,0.8,2.5 c0.4,0.6,0.8,1.1,1.2,1.4c0.5,0.3,0.9,0.4,1.5,0.4c1.2,0,2.2-0.7,3-2.1c0.8-1.4,1.2-3.7,1.2-6.9c0-2.8-0.4-4.8-1.1-6.1 c-0.7-1.3-1.7-1.9-2.9-1.9c-0.5,0-1,0.1-1.4,0.4c-0.5,0.3-0.9,0.7-1.3,1.4c-0.4,0.7-0.7,1.6-1,2.7c-0.3,1.1-0.4,2.6-0.4,4.3 C556.7,26.2,556.9,27.5,557.1,28.5 M532.5,16.8c0.8-1.3,1.8-2.2,2.9-2.9c1.1-0.7,2.4-1,3.8-1c2.2,0,4,0.6,5.2,1.9s1.8,3.4,1.8,6.3 c0,1.5,0,2.9-0.1,4c-0.1,1.2-0.1,2.3-0.1,3.5c0,1,0,2,0.1,3.1c0,1.1,0.1,2.2,0.2,3.2c-0.4-0.1-0.9-0.1-1.5-0.1h-1.9H541 c-0.6,0-1.1,0-1.5,0.1c0.2-1.6,0.3-3.4,0.4-5.5c0.1-2.1,0.1-4.5,0.1-7.2c0-1.9-0.3-3.3-1-4.1c-0.6-0.9-1.5-1.3-2.7-1.3 c-1.3,0-2.3,0.6-3,1.7c-0.6,1.2-0.9,2.8-0.9,4.8v1.8c0,1.8,0,3.5,0.1,5.1c0,1.6,0.1,3.2,0.3,4.7c-0.4-0.1-0.9-0.1-1.5-0.1h-1.9h-1.9 c-0.6,0-1.1,0-1.5,0.1c0.1-1.5,0.2-3,0.3-4.7c0-1.6,0.1-3.3,0.1-5.1v-1.8c0-1.8,0-3.5-0.1-5.1c0-1.6-0.1-3.2-0.3-4.8 c0.5,0.1,1.1,0.1,1.6,0.2c0.5,0,1.1,0.1,1.6,0.1s1.1,0,1.6-0.1c0.5,0,1.1-0.1,1.7-0.2L532.5,16.8L532.5,16.8 M515.1,31.7 c-0.8,1.3-1.8,2.2-2.9,2.8c-1.1,0.6-2.4,1-3.8,1c-2.2,0-4-0.6-5.2-1.9c-1.2-1.3-1.8-3.3-1.8-6.2c0-1.5,0-2.9,0.1-4 c0.1-1.2,0.1-2.3,0.1-3.5c0-1,0-2-0.1-3.1c0-1.1-0.1-2.2-0.2-3.4c0.4,0.1,0.9,0.1,1.5,0.2c0.6,0,1.2,0.1,1.9,0.1s1.3,0,1.9-0.1 c0.6,0,1.1-0.1,1.5-0.2c-0.2,1.6-0.3,3.5-0.4,5.6c-0.1,2.1-0.1,4.5-0.1,7.2c0,1.9,0.3,3.3,1,4.1c0.6,0.9,1.5,1.3,2.7,1.3 c1.3,0,2.3-0.6,3-1.7c0.6-1.2,0.9-2.8,0.9-4.8v-1.8c0-1.8,0-3.5-0.1-5.1c0-1.6-0.1-3.2-0.3-4.8c0.8,0.2,2,0.2,3.4,0.2 c0.7,0,1.3,0,1.9-0.1c0.6,0,1.1-0.1,1.5-0.2c-0.2,1.6-0.2,3.2-0.3,4.8c0,1.6-0.1,3.3-0.1,5.1V25c0,1.8,0,3.5,0.1,5.1 c0,1.6,0.1,3.2,0.3,4.7c-0.5-0.1-1.1-0.1-1.6-0.1h-1.6h-1.6c-0.5,0-1.1,0-1.7,0.1L515.1,31.7L515.1,31.7 M465.5,8.6 c-0.1-2.4-0.1-4.9-0.3-7.4c0.4,0.1,0.9,0.1,1.5,0.2c0.6,0,1.2,0.1,1.9,0.1s1.3,0,1.9-0.1c0.6,0,1.1-0.1,1.5-0.2 c-0.1,1.3-0.1,2.5-0.2,3.8c0,1.3-0.1,2.7-0.1,4.3c0,1.6-0.1,3.5-0.1,5.5c0,2.1,0,4.5,0,7.4c0,0.4,0,0.7,0,0.8s0.1,0.2,0.2,0.2 c0.1,0,0.4-0.2,0.9-0.7s1.1-1.1,1.8-2c0.7-0.9,1.6-1.9,2.5-3.1c1-1.2,2-2.6,3.2-4c0.4,0.1,0.7,0.1,1.1,0.2c0.3,0,0.7,0.1,1.1,0.1 c0.3,0,0.7,0,1.1-0.1c0.4,0,0.9-0.1,1.4-0.2c-0.4,0.4-1,1.1-1.7,1.8c-0.8,0.8-1.5,1.6-2.3,2.4s-1.6,1.6-2.3,2.3 c-0.7,0.7-1.2,1.3-1.6,1.7c0.1,0.2,0.4,0.6,0.8,1.3c0.4,0.7,0.9,1.4,1.5,2.3c0.6,0.9,1.2,1.9,1.8,2.9s1.2,2,1.8,3 c0.6,0.9,1,1.8,1.5,2.5c0.4,0.7,0.7,1.2,0.8,1.4c-0.6-0.1-1.2-0.1-1.8-0.1h-1.7H480c-0.6,0-1.1,0-1.7,0.1c-0.2-0.1-0.4-0.5-0.7-1.1 s-0.7-1.3-1.2-2c-0.4-0.8-0.9-1.6-1.3-2.4c-0.5-0.8-0.9-1.6-1.3-2.3c-0.4-0.7-0.8-1.3-1.1-1.7s-0.6-0.7-0.7-0.7 c-0.1,0-0.2,0.1-0.2,0.3s-0.1,0.7-0.1,1.7v2.5c0,0.4,0,0.9,0,1.4c0,0.6,0,1.1,0,1.7s0,1.1,0.1,1.6c0,0.5,0.1,0.9,0.2,1 c-0.5-0.1-1.1-0.1-1.6-0.1h-1.6h-1.6c-0.5,0-1.1,0-1.6,0.1c0.1-2.4,0.2-4.8,0.3-7.3c0.1-2.4,0.1-5.1,0.1-8.1v-2.9 C465.6,13.7,465.5,11.1,465.5,8.6 M453.6,18.2c0-1.6-0.1-3.2-0.3-4.8c0.4,0.1,0.9,0.1,1.5,0.2c0.6,0,1.2,0.1,1.9,0.1 c1.4,0,2.5-0.1,3.4-0.2c-0.2,1.6-0.2,3.2-0.3,4.8c0,1.6-0.1,3.3-0.1,5.1v1.8c0,1.8,0,3.5,0.1,5.1c0,1.6,0.1,3.2,0.3,4.7 c-0.4-0.1-0.9-0.1-1.5-0.1h-1.9h-1.9c-0.6,0-1.1,0-1.5,0.1c0.1-1.5,0.2-3,0.3-4.7c0-1.6,0.1-3.3,0.1-5.1v-1.9 C453.6,21.5,453.6,19.8,453.6,18.2 M454.1,2.4c0.7-0.7,1.5-1,2.5-1s1.8,0.3,2.5,1s1,1.5,1,2.5s-0.3,1.8-1,2.5s-1.5,1-2.5,1 s-1.8-0.3-2.5-1s-1-1.5-1-2.5C453.1,4,453.4,3.1,454.1,2.4 M441.1,8.6c-0.1-2.4-0.1-4.9-0.3-7.4c0.4,0.1,0.9,0.1,1.5,0.2 c0.6,0,1.2,0.1,1.9,0.1s1.3,0,1.9-0.1c0.6,0,1.1-0.1,1.5-0.2c-0.1,2.5-0.2,5-0.3,7.4c-0.1,2.4-0.1,5.1-0.1,8.1v2.9 c0,2.9,0,5.6,0.1,8.1c0.1,2.4,0.1,4.9,0.3,7.3c-0.4-0.1-0.9-0.1-1.5-0.1h-1.9h-1.9c-0.6,0-1.1,0-1.5,0.1c0.1-2.4,0.2-4.8,0.3-7.3 c0.1-2.4,0.1-5.1,0.1-8.1v-2.9C441.2,13.7,441.2,11.1,441.1,8.6 M429.2,31.7c-0.8,1.3-1.8,2.2-2.9,2.8s-2.4,1-3.8,1 c-2.2,0-4-0.6-5.2-1.9c-1.2-1.3-1.8-3.3-1.8-6.2c0-1.5,0-2.9,0.1-4c0.1-1.2,0.1-2.3,0.1-3.5c0-1,0-2-0.1-3.1c0-1.1-0.1-2.2-0.2-3.4 c0.4,0.1,0.9,0.1,1.5,0.2c0.6,0,1.2,0.1,1.9,0.1s1.3,0,1.9-0.1c0.6,0,1.1-0.1,1.5-0.2c-0.2,1.6-0.3,3.5-0.4,5.6s-0.1,4.5-0.1,7.2 c0,1.9,0.3,3.3,1,4.1c0.6,0.9,1.5,1.3,2.7,1.3c1.3,0,2.3-0.6,3-1.7c0.6-1.2,0.9-2.8,0.9-4.8v-1.8c0-1.8,0-3.5-0.1-5.1 c0-1.6-0.1-3.2-0.3-4.8c0.8,0.2,2,0.2,3.4,0.2c0.7,0,1.3,0,1.9-0.1c0.6,0,1.1-0.1,1.5-0.2c-0.2,1.6-0.2,3.2-0.3,4.8 c0,1.6-0.1,3.3-0.1,5.1V25c0,1.8,0,3.5,0.1,5.1c0,1.6,0.1,3.2,0.3,4.7c-0.5-0.1-1.1-0.1-1.6-0.1h-1.6h-1.6c-0.5,0-1.1,0-1.7,0.1 L429.2,31.7L429.2,31.7 M397.4,13.6c1.4-0.5,2.9-0.8,4.3-0.8c1.2,0,2.3,0.1,3.3,0.4s1.9,0.7,2.6,1.3c0.7,0.6,1.3,1.3,1.7,2.3 c0.4,0.9,0.6,2,0.6,3.4c0,1.9,0,3.7-0.1,5.3c0,1.6-0.1,3.2-0.1,4.9c0,0.7,0.1,1.3,0.2,1.7s0.3,0.7,0.5,0.9s0.5,0.3,0.8,0.4 c0.3,0.1,0.7,0.1,1.2,0.1v1.1c-0.9,0.4-1.6,0.6-2.2,0.8s-1.2,0.3-1.9,0.3c-1.1,0-2-0.3-2.7-0.8s-1.2-1.3-1.6-2.3 c-0.7,1-1.5,1.7-2.4,2.3s-2.1,0.8-3.4,0.8c-1.1,0-2.1-0.1-2.9-0.4c-0.8-0.3-1.5-0.7-2-1.3s-0.9-1.2-1.1-1.9s-0.4-1.4-0.4-2.1 c0-1,0.2-1.8,0.5-2.6c0.3-0.7,0.8-1.3,1.3-1.8c0.6-0.5,1.3-0.9,2.1-1.3c0.8-0.3,1.7-0.6,2.7-0.9c1.3-0.3,2.2-0.6,3-0.8 c0.7-0.2,1.3-0.4,1.6-0.7c0.4-0.2,0.6-0.5,0.7-0.7c0.1-0.3,0.2-0.6,0.2-1c0-1.1-0.4-2-1.1-2.8c-0.8-0.8-1.8-1.1-3.2-1.1 c-0.5,0-1,0.1-1.6,0.2c-0.5,0.1-1.1,0.3-1.5,0.6s-0.9,0.5-1.3,0.8s-0.7,0.6-0.9,0.9H394l-0.6-2.7C394.6,14.9,395.9,14.2,397.4,13.6 M403.9,25.2c0-0.7,0-1.3,0-1.8c-0.6,0.4-1.3,0.6-2,0.9c-0.7,0.2-1.3,0.5-1.9,0.8s-1.1,0.8-1.4,1.4c-0.4,0.6-0.6,1.5-0.6,2.6 s0.2,1.9,0.7,2.5s1.1,0.9,1.9,0.9c1,0,1.8-0.4,2.4-1.1c0.6-0.7,0.9-1.8,0.9-3.3C403.9,26.8,403.9,25.9,403.9,25.2 M382.6,19 c0.8-2.1,1.7-3.6,2.8-4.5c1.1-1,2.4-1.5,3.9-1.5c0.1,0,0.3,0,0.4,0s0.2,0,0.3,0c-0.1,0.4-0.2,0.9-0.2,1.4s-0.1,1.1-0.1,1.8v1.4v0.8 c0,0.3,0,0.5,0,0.8l-0.4,0.4c-0.3-0.2-0.6-0.3-1-0.4S387.5,19,387,19c-1.3,0-2.4,0.4-3.2,1.3c-0.8,0.9-1.2,1.9-1.2,3.1v1.8 c0,1.8,0,3.5,0.1,5.1c0,1.6,0.1,3.2,0.3,4.7c-0.4-0.1-0.9-0.1-1.4-0.1h-1.9h-1.9c-0.6,0-1.1,0-1.5,0.1c0.1-1.5,0.2-3,0.3-4.7 c0-1.6,0.1-3.3,0.1-5.1v-1.9c0-1.8,0-3.5-0.1-5.1c0-1.6-0.1-3.2-0.3-4.8c0.5,0.1,1,0.1,1.5,0.2c0.5,0,1,0.1,1.5,0.1s1,0,1.5-0.1 c0.5,0,1-0.1,1.5-0.2L382.6,19L382.6,19 M371.2,27.6c0.1,2.4,0.1,4.9,0.3,7.3c-0.4-0.1-0.9-0.1-1.5-0.1h-1.9h-1.7 c-0.6,0-1,0-1.3,0.1c0-0.1,0.1-0.3,0.1-0.6s0.1-0.7,0.1-1.1c0-0.4,0.1-0.8,0.1-1.2s0-0.6,0-0.7l-0.1-0.1c-0.6,1.3-1.3,2.4-2.3,3.1 c-1,0.7-2.3,1.1-4.1,1.1c-1.5,0-2.8-0.3-3.9-0.9c-1.1-0.6-2-1.4-2.6-2.4c-0.7-1-1.2-2.3-1.5-3.7s-0.5-2.9-0.5-4.5s0.2-3.1,0.7-4.5 c0.4-1.4,1.1-2.5,1.8-3.5c0.8-1,1.7-1.8,2.8-2.3c1.1-0.6,2.2-0.9,3.4-0.9c1.3,0,2.5,0.3,3.6,0.9s1.8,1.4,2.3,2.4h0.1 c0-2.7,0-5.2-0.1-7.6s-0.1-4.8-0.3-7.4c0.4,0.1,0.9,0.1,1.5,0.2c0.6,0,1.2,0.1,1.9,0.1s1.3,0,1.9-0.1c0.6,0,1.1-0.1,1.5-0.2 c-0.1,2.5-0.2,5-0.3,7.4c-0.1,2.4-0.1,5.1-0.1,8.1v2.9C371.1,22.5,371.1,25.2,371.2,27.6 M357.4,28.5c0.2,1,0.5,1.9,0.9,2.5 s0.8,1.1,1.2,1.4c0.5,0.3,0.9,0.4,1.5,0.4c1.2,0,2.2-0.7,3-2.1c0.8-1.4,1.2-3.7,1.2-6.9c0-2.8-0.4-4.8-1.1-6.1 c-0.7-1.3-1.7-1.9-2.9-1.9c-0.5,0-1,0.1-1.4,0.4c-0.5,0.3-0.9,0.7-1.3,1.4c-0.4,0.7-0.7,1.6-1,2.7c-0.3,1.1-0.4,2.6-0.4,4.3 C357,26.2,357.1,27.5,357.4,28.5 M340.9,23.6c0.4-1.2,0.9-2.3,1.3-3.4s0.8-2.2,1.2-3.3c0.4-1.1,0.8-2.3,1.1-3.5 c0.3,0.1,0.6,0.1,0.9,0.2c0.3,0,0.6,0.1,0.9,0.1s0.6,0,0.9-0.1c0.3,0,0.6-0.1,1-0.2c-0.1,0.4-0.5,1.2-1.1,2.5s-1.2,2.8-2,4.7 c-0.8,1.9-1.7,3.9-2.6,6.2c-1,2.3-1.9,4.6-2.9,6.9c-1,2.3-1.9,4.6-2.8,6.9c-0.9,2.3-1.7,4.3-2.4,6.2c-0.3-0.1-0.6-0.1-0.9-0.2 c-0.3,0-0.6-0.1-0.9-0.1s-0.6,0-0.9,0.1c-0.3,0-0.6,0.1-0.9,0.2c1-2,2-3.9,2.9-5.8c1-1.9,1.9-3.9,2.8-5.8c-0.7-1.7-1.5-3.6-2.4-5.8 c-0.9-2.1-1.7-4.3-2.6-6.3s-1.6-3.9-2.3-5.6c-0.7-1.7-1.2-3-1.6-3.9c0.6,0.1,1.1,0.1,1.7,0.2c0.6,0,1.1,0.1,1.7,0.1s1.1,0,1.7-0.1 c0.5,0,1.1-0.1,1.7-0.2c0.9,2.4,1.7,4.7,2.6,7s1.8,4.7,2.8,7C339.9,26.1,340.4,24.8,340.9,23.6 M312.6,20c-1.1,0-2.3-0.1-3.4-0.1 s-2.3,0-3.4,0s-2.3,0.1-3.4,0.1v2.5c0,2.5,0,4.7,0.1,6.6c0.1,1.9,0.1,3.8,0.3,5.7c-0.5-0.1-1.1-0.1-1.7-0.1h-2h-2 c-0.6,0-1.1,0-1.7,0.1c0.1-1.8,0.2-3.7,0.3-5.7c0.1-1.9,0.1-4.1,0.1-6.6v-6.1c0-2.5,0-4.7-0.1-6.6s-0.1-3.9-0.3-5.8 c0.5,0.1,1.1,0.1,1.7,0.2c0.6,0,1.3,0.1,2,0.1s1.4,0,2-0.1c0.6,0,1.1-0.1,1.7-0.2c-0.1,1.9-0.2,3.9-0.3,5.7c0,1.9-0.1,4.1-0.1,6.6 c0.8,0,1.7,0.1,2.8,0.1c1.1,0,2.4,0,4,0s2.9,0,3.9,0s2,0,2.8-0.1c0-2.5,0-4.7-0.1-6.6s-0.1-3.8-0.3-5.7c0.5,0.1,1.1,0.1,1.7,0.2 c0.6,0,1.3,0.1,2,0.1s1.4,0,2-0.1c0.6,0,1.1-0.1,1.7-0.2c-0.1,1.9-0.2,3.9-0.3,5.8c-0.1,1.9-0.1,4.1-0.1,6.6v6.1 c0,2.5,0,4.7,0.1,6.6c0.1,1.9,0.1,3.8,0.3,5.7c-0.5-0.1-1.1-0.1-1.7-0.1h-2h-2c-0.6,0-1.1,0-1.7,0.1c0.1-1.8,0.2-3.7,0.3-5.7 c0.1-1.9,0.1-4.1,0.1-6.6V20C314.8,20.1,313.7,20,312.6,20"></path> <path class="st0" d="M730.6,79.6c-1.1,0-2.3-0.1-3.4-0.1c-1.1,0-2.3,0-3.4,0c-1.1,0-2.3,0.1-3.4,0.1v2.6c0,2.5,0,4.7,0.1,6.6 c0.1,1.9,0.1,3.8,0.3,5.7c-0.5-0.1-1.1-0.1-1.7-0.1h-2h-2c-0.6,0-1.1,0-1.7,0.1c0.1-1.8,0.2-3.7,0.3-5.7c0.1-1.9,0.1-4.1,0.1-6.6 v-6.1c0-2.5,0-4.7-0.1-6.6c-0.1-1.9-0.1-3.9-0.3-5.8c0.5,0.1,1.1,0.1,1.7,0.2c0.6,0,1.3,0.1,2,0.1s1.4,0,2-0.1 c0.6,0,1.1-0.1,1.7-0.2c-0.2,1.9-0.2,3.9-0.3,5.7s-0.1,4.1-0.1,6.6c0.8,0,1.7,0.1,2.8,0.1s2.4,0,4,0s2.9,0,3.9,0s2,0,2.8-0.1 c0-2.5,0-4.7-0.1-6.6c-0.1-1.9-0.1-3.8-0.3-5.7c0.5,0.1,1.1,0.1,1.7,0.2c0.6,0,1.3,0.1,2,0.1s1.4,0,2-0.1c0.6,0,1.1-0.1,1.7-0.2 c-0.1,1.9-0.2,3.9-0.3,5.8c-0.1,1.9-0.1,4.1-0.1,6.6v6.1c0,2.5,0,4.7,0.1,6.6c0.1,1.9,0.1,3.8,0.3,5.7c-0.5-0.1-1.1-0.1-1.7-0.1h-2 h-2c-0.6,0-1.1,0-1.7,0.1c0.1-1.8,0.2-3.7,0.3-5.7c0.1-1.9,0.1-4.1,0.1-6.6v-2.6C732.9,79.7,731.8,79.7,730.6,79.6 M687.6,68.3 c-0.1-2.4-0.1-4.9-0.3-7.4c0.4,0.1,0.9,0.1,1.5,0.2s1.2,0.1,1.9,0.1s1.3,0,1.9-0.1c0.6,0,1.1-0.1,1.5-0.2c-0.1,2.5-0.2,5-0.3,7.4 s-0.1,5.1-0.1,8.1h0.1c0.5-1.3,1.3-2.2,2.3-2.9c1.1-0.7,2.3-1,3.6-1s2.5,0.3,3.5,0.9c1.1,0.6,2,1.3,2.7,2.3c0.8,1,1.3,2.1,1.8,3.4 c0.4,1.3,0.6,2.7,0.6,4.2c0,2.2-0.3,4.1-0.9,5.7c-0.6,1.5-1.4,2.8-2.4,3.7c-1,1-2.1,1.6-3.2,2c-1.2,0.4-2.4,0.6-3.5,0.6 c-1.4,0-2.6-0.3-3.6-0.8c-1-0.6-1.8-1.3-2.4-2.2c-0.6,0.4-1.3,0.8-1.9,1.3c-0.6,0.5-1.3,0.9-1.9,1.3h-1.2c0.1-2.5,0.2-5,0.3-7.4 c0.1-2.5,0.1-5.2,0.1-8.1v-3.1C687.7,73.4,687.7,70.7,687.6,68.3 M693.8,87.7c0.1,1.1,0.3,2.1,0.6,2.9c0.3,0.8,0.7,1.5,1.2,1.9 c0.5,0.5,1.1,0.7,1.9,0.7c1.3,0,2.3-0.8,3.1-2.4c0.8-1.6,1.1-4.2,1.1-7.9c0-5.2-1.3-7.8-3.8-7.8c-0.6,0-1.2,0.1-1.7,0.4 c-0.5,0.3-1,0.8-1.3,1.5c-0.4,0.7-0.7,1.6-0.8,2.7c-0.2,1.1-0.3,2.5-0.3,4.1C693.7,85.3,693.7,86.5,693.8,87.7 M656.3,76.4 c0.8-1.3,1.8-2.2,2.9-2.9c1.1-0.7,2.4-1,3.8-1c1.3,0,2.5,0.4,3.5,1.1c1,0.7,1.7,1.8,2.3,3.2c0.9-1.4,1.9-2.4,3.1-3.2 c1.2-0.7,2.5-1.1,3.8-1.1c2.2,0,4,0.6,5.2,1.9c1.2,1.3,1.8,3.4,1.8,6.3c0,1.5,0,2.9-0.1,4c-0.1,1.2-0.1,2.3-0.1,3.5c0,1,0,2,0.1,3.1 c0,1.1,0.1,2.2,0.2,3.2c-0.4-0.1-0.9-0.1-1.5-0.1h-1.9h-1.9c-0.6,0-1.1,0-1.5,0.1c0.2-1.6,0.3-3.4,0.4-5.5c0.1-2.1,0.1-4.5,0.1-7.2 c0-1.9-0.3-3.3-0.9-4.1c-0.6-0.9-1.5-1.3-2.6-1.3c-0.7,0-1.3,0.2-1.8,0.5s-0.8,0.8-1.1,1.3s-0.4,1.1-0.5,1.7 c-0.1,0.6-0.1,1.2-0.1,1.7v3.2c0,1.8,0,3.5,0.1,5.1c0,1.6,0.1,3.2,0.3,4.7c-0.4-0.1-0.9-0.1-1.5-0.1h-1.9h-1.9c-0.6,0-1.1,0-1.5,0.1 c0.1-1.5,0.2-3,0.3-4.7c0-1.6,0.1-3.3,0.1-5.1v-2.7c0-1.8-0.2-3.2-0.7-4.2c-0.4-1-1.3-1.5-2.5-1.5c-1.3,0-2.3,0.6-3,1.7 c-0.6,1.2-0.9,2.8-0.9,4.8v1.8c0,1.8,0,3.5,0.1,5.1c0,1.6,0.1,3.2,0.3,4.7c-0.4-0.1-0.9-0.1-1.5-0.1h-2h-1.9c-0.6,0-1.1,0-1.5,0.1 c0.1-1.5,0.2-3,0.3-4.7c0-1.6,0.1-3.3,0.1-5.1v-1.8c0-1.8,0-3.5-0.1-5.1c0-1.6-0.1-3.2-0.3-4.8c0.5,0.1,1.1,0.1,1.6,0.2 c0.5,0,1.1,0.1,1.6,0.1s1.1,0,1.6-0.1c0.5,0,1.1-0.1,1.7-0.2L656.3,76.4L656.3,76.4z M638.8,67.2c-1.4-0.8-3.2-1.2-5.2-1.2 c-1.4,0-2.7,0.3-4.1,0.9c-1.4,0.6-2.6,1.5-3.6,2.6c-1.1,1.2-1.9,2.6-2.6,4.4c-0.7,1.7-1,3.8-1,6.2c0,1.8,0.2,3.4,0.7,5 s1.2,2.8,2.1,4c0.9,1.1,2.1,2,3.4,2.6c1.3,0.6,2.9,0.9,4.6,0.9c0.4,0,0.8,0,1.3-0.1c0.5,0,1-0.1,1.4-0.2c0.5-0.1,0.9-0.1,1.3-0.2 c0.4-0.1,0.7-0.2,0.8-0.3c0.1-0.4,0.1-0.8,0.1-1.3s0-1.1,0-1.8c0-2.4,0-4.2-0.1-5.3s-0.1-1.9-0.2-2.3c0.3,0.1,0.7,0.1,1.2,0.2 c0.5,0,1.2,0.1,2.1,0.1c1.1,0,1.9,0,2.4-0.1c0.5,0,0.9-0.1,1.2-0.2c-0.1,0.2-0.1,0.6-0.2,1.2c0,0.5-0.1,1.2-0.1,1.9 s-0.1,1.4-0.1,2.2s0,1.5,0,2.3v1.5c0,0.7,0,1.4,0,2.1c0,0.6,0.1,1.1,0.1,1.4c-2,0.6-4,1-6,1.3s-4,0.5-6,0.5c-2.6,0-4.9-0.3-7.1-1 c-2.2-0.7-4-1.7-5.6-3s-2.8-2.9-3.7-4.7s-1.3-3.9-1.3-6.2c0-2.8,0.5-5.3,1.4-7.4c0.9-2.1,2.2-3.9,3.9-5.3c1.7-1.4,3.6-2.5,5.9-3.2 c2.3-0.7,4.7-1.1,7.3-1.1c2.3,0,4.2,0.2,5.9,0.7s3.3,1.1,4.9,2c-0.2,0.8-0.5,1.5-0.7,2.3c-0.2,0.7-0.4,1.5-0.6,2.3H642 C641.5,69.1,640.3,68.1,638.8,67.2 M579.5,68.3c-0.1-2.4-0.1-4.9-0.3-7.4c0.4,0.1,0.9,0.1,1.5,0.2s1.2,0.1,1.9,0.1s1.3,0,1.9-0.1 s1.1-0.1,1.5-0.2c-0.1,1.3-0.1,2.5-0.2,3.8c0,1.3-0.1,2.7-0.1,4.3s-0.1,3.5-0.1,5.5s0,4.5,0,7.4c0,0.4,0,0.7,0,0.8s0.1,0.2,0.2,0.2 c0.1,0,0.4-0.2,0.9-0.7s1.1-1.1,1.8-2s1.6-1.9,2.6-3.1c1-1.2,2-2.6,3.2-4c0.4,0.1,0.7,0.1,1.1,0.2c0.3,0,0.7,0.1,1.1,0.1 c0.3,0,0.7,0,1.1-0.1c0.4,0,0.9-0.1,1.4-0.2c-0.4,0.4-1,1.1-1.7,1.8c-0.8,0.8-1.5,1.6-2.3,2.4c-0.8,0.8-1.6,1.6-2.3,2.3 s-1.2,1.3-1.6,1.7c0.1,0.2,0.4,0.6,0.8,1.3c0.4,0.7,0.9,1.4,1.5,2.3c0.6,0.9,1.2,1.9,1.8,2.9s1.2,2,1.8,3c0.6,0.9,1,1.8,1.5,2.5 c0.4,0.7,0.7,1.2,0.8,1.4c-0.6-0.1-1.2-0.1-1.8-0.1h-1.7h-1.7c-0.6,0-1.1,0-1.7,0.1c-0.1-0.1-0.4-0.5-0.7-1.1s-0.7-1.3-1.2-2 c-0.4-0.8-0.9-1.6-1.3-2.4c-0.5-0.8-0.9-1.6-1.3-2.3c-0.4-0.7-0.8-1.3-1.1-1.7s-0.6-0.7-0.7-0.7c-0.1,0-0.2,0.1-0.2,0.3 s-0.1,0.7-0.1,1.7V89c0,0.4,0,0.9,0,1.4c0,0.6,0,1.1,0,1.7c0,0.6,0,1.1,0.1,1.6c0,0.5,0.1,0.8,0.2,1c-0.5-0.1-1.1-0.1-1.6-0.1h-1.6 h-1.6c-0.5,0-1.1,0-1.6,0.1c0.1-2.4,0.2-4.8,0.3-7.3c0.1-2.4,0.1-5.1,0.1-8.1v-3C579.6,73.4,579.6,70.7,579.5,68.3 M567.6,77.9 c0-1.6-0.1-3.2-0.3-4.8c0.4,0.1,0.9,0.1,1.5,0.2c0.6,0,1.2,0.1,1.9,0.1c1.4,0,2.5-0.1,3.4-0.2c-0.1,1.6-0.2,3.2-0.3,4.8 c0,1.6-0.1,3.3-0.1,5.1v1.8c0,1.8,0,3.5,0.1,5.1c0,1.6,0.1,3.2,0.3,4.7c-0.4-0.1-0.9-0.1-1.5-0.1h-1.9h-1.9c-0.6,0-1.1,0-1.5,0.1 c0.1-1.5,0.2-3,0.3-4.7c0-1.6,0.1-3.3,0.1-5.1v-1.8C567.7,81.2,567.6,79.4,567.6,77.9 M568.2,62.1c0.7-0.7,1.5-1,2.5-1 s1.8,0.3,2.5,1s1,1.5,1,2.5s-0.3,1.8-1,2.5s-1.5,1-2.5,1s-1.8-0.3-2.5-1s-1-1.5-1-2.5C567.1,63.6,567.5,62.8,568.2,62.1 M548.3,76.4 c0.8-1.3,1.8-2.2,2.9-2.9c1.1-0.7,2.4-1,3.8-1c2.2,0,4,0.6,5.2,1.9c1.2,1.3,1.8,3.4,1.8,6.3c0,1.5,0,2.9-0.1,4 c-0.1,1.2-0.1,2.3-0.1,3.5c0,1,0,2,0.1,3.1s0.1,2.2,0.2,3.2c-0.4-0.1-0.9-0.1-1.5-0.1h-1.9h-1.9c-0.6,0-1.1,0-1.5,0.1 c0.2-1.6,0.3-3.4,0.4-5.5c0.1-2.1,0.1-4.5,0.1-7.2c0-1.9-0.3-3.3-1-4.1c-0.6-0.9-1.5-1.3-2.7-1.3c-1.3,0-2.3,0.6-3,1.7 c-0.6,1.2-0.9,2.8-0.9,4.8v1.8c0,1.8,0,3.5,0.1,5.1c0,1.6,0.1,3.2,0.3,4.7c-0.4-0.1-0.9-0.1-1.5-0.1h-1.8h-1.9c-0.6,0-1.1,0-1.5,0.1 c0.1-1.5,0.2-3,0.3-4.7c0-1.6,0.1-3.3,0.1-5.1v-1.8c0-1.8,0-3.5-0.1-5.1c0-1.6-0.1-3.2-0.3-4.8c0.5,0.1,1.1,0.1,1.6,0.2 c0.5,0,1.1,0.1,1.6,0.1s1.1,0,1.6-0.1c0.5,0,1.1-0.1,1.7-0.2L548.3,76.4L548.3,76.4z M517.3,68.3c-0.1-2.4-0.2-4.9-0.3-7.4 c0.4,0.1,0.9,0.1,1.5,0.2c0.6,0,1.2,0.1,1.9,0.1s1.3,0,1.9-0.1c0.6,0,1.1-0.1,1.5-0.2c-0.1,2.5-0.2,5-0.3,7.4s-0.1,5.1-0.1,8.1 l0.1,0.1c0.8-1.3,1.7-2.2,2.8-2.9s2.4-1,3.8-1c2.2,0,4,0.6,5.2,1.9c1.2,1.3,1.8,3.4,1.8,6.3c0,1.5,0,2.9-0.1,4 c-0.1,1.2-0.1,2.3-0.1,3.5c0,1,0,2,0.1,3.1c0,1.1,0.1,2.2,0.2,3.2c-0.4-0.1-0.9-0.1-1.5-0.1h-1.9h-1.9c-0.6,0-1.1,0-1.5,0.1 c0.2-1.6,0.3-3.4,0.4-5.5c0.1-2.1,0.1-4.5,0.1-7.2c0-1.9-0.3-3.3-1-4.1c-0.6-0.9-1.5-1.3-2.7-1.3c-1.3,0-2.3,0.6-3,1.7 c-0.6,1.2-0.9,2.8-0.9,4.8v1.8c0,0.4,0,1,0,1.8s0,1.7,0.1,2.6c0,0.9,0.1,1.9,0.1,2.9s0.1,1.8,0.2,2.5c-0.4-0.1-0.9-0.1-1.5-0.1h-1.9 h-1.9c-0.6,0-1.1,0-1.5,0.1c0.1-2.4,0.2-4.8,0.3-7.3c0.1-2.4,0.1-5.1,0.1-8.1v-2.9C517.4,73.4,517.4,70.7,517.3,68.3 M510.4,76 c-0.7-0.8-1.7-1.2-3.1-1.2c-1.8,0-3.1,0.8-4,2.4c-0.9,1.6-1.3,3.9-1.3,6.8c0,2.7,0.6,4.8,1.7,6.2c1.1,1.4,2.8,2.2,5,2.2 c0.9,0,1.8-0.2,2.7-0.6s1.5-0.9,1.9-1.5l0.5,0.4c-0.2,0.4-0.4,0.8-0.5,1.3c-0.2,0.4-0.3,0.9-0.4,1.3c-0.7,0.5-1.5,0.9-2.5,1.3 c-1,0.3-2.2,0.5-3.6,0.5c-2.2,0-4-0.3-5.5-0.9c-1.5-0.6-2.7-1.5-3.6-2.6c-0.9-1.1-1.6-2.3-1.9-3.6c-0.4-1.4-0.6-2.7-0.6-4.1 c0-1.6,0.3-3.2,0.8-4.6c0.6-1.4,1.3-2.6,2.4-3.6c1-1,2.3-1.8,3.7-2.4c1.5-0.6,3.1-0.9,4.9-0.9c1.7,0,3.1,0.2,4.3,0.6 c1.2,0.4,2.3,0.9,3.4,1.5c-0.4,0.6-0.7,1.3-1,2.2s-0.5,1.7-0.7,2.5h-1.1C511.5,77.9,511.1,76.8,510.4,76 M484.9,76.5 c-0.5-1.3-1.3-2-2.5-2c-0.7,0-1.2,0.2-1.7,0.7c-0.4,0.4-0.8,1-1.1,1.7s-0.5,1.5-0.6,2.4s-0.2,1.8-0.2,2.6h6.9 C485.7,79.6,485.4,77.8,484.9,76.5 M479.2,87.2c0.2,1,0.6,1.9,1.1,2.7s1.1,1.4,1.9,1.8c0.8,0.4,1.6,0.6,2.7,0.6c2.1,0,3.9-0.7,5.5-2 l0.5,0.4l-1,2.5c-0.7,0.6-1.6,1-2.7,1.4c-1,0.3-2.4,0.5-4.1,0.5c-1.5,0-2.8-0.2-4.2-0.6c-1.3-0.4-2.5-1.1-3.5-2s-1.8-2.1-2.4-3.5 c-0.6-1.4-0.9-3.1-0.9-5.1c0-1.9,0.3-3.6,0.8-5.1c0.5-1.4,1.2-2.6,2.2-3.6c0.9-1,2-1.7,3.3-2.1c1.3-0.5,2.6-0.7,4.1-0.7 c3,0,5.2,0.9,6.8,2.6c1.6,1.7,2.3,4.2,2.3,7.3v0.9c0,0.3,0,0.4,0,0.5h-12.8C478.9,85.1,479,86.2,479.2,87.2 M469.9,74.5 c0,0.4,0,0.8,0.1,1.1l-3.9-0.1c-0.1,0.7-0.1,1.5-0.2,2.4c0,0.9-0.1,1.8-0.1,2.7s0,1.8,0,2.7s0,1.6,0,2.2c0,1.6,0,2.8,0.1,3.8 s0.2,1.7,0.4,2.2s0.4,0.8,0.8,1c0.3,0.2,0.7,0.3,1.3,0.3s1,0,1.3-0.1s0.5-0.2,0.8-0.3v1.8c-0.6,0.3-1.3,0.5-2.2,0.7 s-1.8,0.3-2.6,0.3c-3.8,0-5.7-2.3-5.7-6.8c0-0.9,0-1.8,0-2.9c0-1.1,0.1-2.2,0.1-3.4c0-1.1,0.1-2.3,0.1-3.4c0-1.1,0-2.2,0-3.1h-3.1 c0.1-0.4,0.1-0.7,0.1-1.1c0-0.4,0-0.8-0.1-1.2l3.1,0.1c0-0.9,0-1.8,0-2.6s-0.1-1.8-0.1-2.9c1-0.4,2.1-0.9,3.1-1.3c1-0.5,2-0.9,3-1.5 l0.4,0.3c-0.1,0.5-0.1,1-0.2,1.7c0,0.6-0.1,1.3-0.1,2s-0.1,1.4-0.1,2.1c0,0.7,0,1.4,0,2.1l3.9-0.1C469.9,73.7,469.9,74.1,469.9,74.5 M442.2,90.4c0.3,0.4,0.6,0.8,1.1,1.2c0.4,0.3,0.9,0.6,1.5,0.8s1.3,0.3,2,0.3c1,0,1.8-0.3,2.4-0.8s0.9-1.1,0.9-1.7 c0-0.7-0.3-1.2-0.8-1.7c-0.5-0.4-1.1-0.8-1.9-1.1s-1.6-0.7-2.5-1.1c-0.9-0.4-1.7-0.8-2.5-1.4c-0.8-0.6-1.4-1.2-1.9-2.1 c-0.5-0.8-0.8-1.9-0.8-3.2s0.2-2.3,0.7-3.2s1.1-1.7,1.8-2.2c0.7-0.6,1.6-1,2.5-1.3s1.9-0.4,2.8-0.4c1.3,0,2.4,0.2,3.3,0.5 c1,0.4,2,0.9,3,1.6c-0.3,0.6-0.5,1.2-0.7,1.9s-0.3,1.4-0.4,2h-1.3c-0.1-0.4-0.2-0.8-0.4-1.2c-0.2-0.4-0.5-0.8-0.9-1.2 s-0.8-0.7-1.3-1s-1.1-0.4-1.8-0.4c-0.9,0-1.6,0.2-2.3,0.7c-0.6,0.5-0.9,1.1-0.9,1.9c0,0.7,0.3,1.3,0.8,1.7s1.2,0.8,1.9,1.1 c0.8,0.3,1.6,0.7,2.5,1s1.8,0.8,2.5,1.3c0.8,0.5,1.4,1.2,1.9,2s0.8,1.9,0.8,3.2S454,90,453.5,91c-0.5,0.9-1.1,1.7-1.9,2.3 s-1.7,1.1-2.8,1.3c-1,0.3-2.1,0.4-3.2,0.4c-1.3,0-2.6-0.2-3.6-0.6c-1.1-0.4-1.9-0.8-2.5-1.2c0.4-1.4,0.6-2.9,0.7-4.3h1.1 C441.7,89.5,442,90,442.2,90.4 M416.2,68.3c-0.1-2.4-0.1-4.9-0.3-7.4c0.4,0.1,0.9,0.1,1.5,0.2s1.2,0.1,1.9,0.1s1.3,0,1.9-0.1 c0.6,0,1.1-0.1,1.5-0.2c-0.1,2.5-0.2,5-0.3,7.4c-0.1,2.4-0.1,5.1-0.1,8.1h0.1c0.5-1.3,1.3-2.2,2.3-2.9c1.1-0.7,2.3-1,3.6-1 c1.3,0,2.5,0.3,3.5,0.9c1.1,0.6,2,1.3,2.7,2.3c0.8,1,1.4,2.1,1.8,3.4c0.4,1.3,0.6,2.7,0.6,4.2c0,2.2-0.3,4.1-0.9,5.7 c-0.6,1.5-1.4,2.8-2.4,3.7c-1,1-2.1,1.6-3.2,2c-1.2,0.4-2.4,0.6-3.5,0.6c-1.4,0-2.6-0.3-3.6-0.8c-1-0.6-1.8-1.3-2.4-2.2 c-0.6,0.4-1.3,0.8-1.9,1.3s-1.3,0.9-1.9,1.3H416c0.1-2.5,0.2-5,0.3-7.4c0.1-2.5,0.1-5.2,0.1-8.1v-3.1 C416.3,73.4,416.3,70.7,416.2,68.3 M422.5,87.7c0.1,1.1,0.3,2.1,0.6,2.9c0.3,0.8,0.7,1.5,1.2,1.9c0.5,0.5,1.1,0.7,1.9,0.7 c1.3,0,2.3-0.8,3.1-2.4c0.8-1.6,1.1-4.2,1.1-7.9c0-5.2-1.3-7.8-3.8-7.8c-0.6,0-1.2,0.1-1.7,0.4c-0.5,0.3-1,0.8-1.3,1.5 c-0.4,0.7-0.7,1.6-0.9,2.7c-0.2,1.1-0.3,2.5-0.3,4.1C422.3,85.3,422.4,86.5,422.5,87.7 M405.4,76.5c-0.5-1.3-1.3-2-2.5-2 c-0.7,0-1.2,0.2-1.7,0.7c-0.4,0.4-0.8,1-1.1,1.7c-0.3,0.7-0.5,1.5-0.6,2.4s-0.2,1.8-0.2,2.6h6.9C406.1,79.6,405.9,77.8,405.4,76.5 M399.7,87.2c0.2,1,0.6,1.9,1.1,2.7s1.1,1.4,1.9,1.8c0.8,0.4,1.6,0.6,2.7,0.6c2.1,0,3.9-0.7,5.5-2l0.5,0.4l-1,2.5 c-0.7,0.6-1.6,1-2.7,1.4c-1,0.3-2.4,0.5-4.1,0.5c-1.5,0-2.8-0.2-4.2-0.6c-1.3-0.4-2.5-1.1-3.5-2s-1.8-2.1-2.4-3.5s-0.9-3.1-0.9-5.1 c0-1.9,0.3-3.6,0.8-5.1c0.5-1.4,1.2-2.6,2.2-3.6c0.9-1,2-1.7,3.3-2.1c1.3-0.5,2.6-0.7,4.1-0.7c3,0,5.2,0.9,6.8,2.6 c1.6,1.7,2.3,4.2,2.3,7.3v0.9c0,0.3,0,0.4,0,0.5h-12.8C399.3,85.1,399.4,86.2,399.7,87.2 M381.9,77.9c0-1.6-0.1-3.2-0.3-4.8 c0.4,0.1,0.9,0.1,1.5,0.2c0.6,0,1.2,0.1,1.9,0.1c1.4,0,2.5-0.1,3.4-0.2c-0.1,1.6-0.2,3.2-0.3,4.8c0,1.6-0.1,3.3-0.1,5.1v1.8 c0,1.8,0,3.5,0.1,5.1c0,1.6,0.1,3.2,0.3,4.7c-0.4-0.1-0.9-0.1-1.5-0.1H385h-1.9c-0.6,0-1.1,0-1.5,0.1c0.1-1.5,0.2-3,0.3-4.7 c0-1.6,0.1-3.3,0.1-5.1v-1.8C382,81.2,382,79.4,381.9,77.9 M382.5,62.1c0.7-0.7,1.5-1,2.5-1s1.8,0.3,2.5,1s1,1.5,1,2.5 s-0.3,1.8-1,2.5s-1.5,1-2.5,1s-1.8-0.3-2.5-1s-1-1.5-1-2.5S381.8,62.8,382.5,62.1 M370.1,78.6c0.8-2.1,1.7-3.6,2.8-4.5 c1.1-1,2.4-1.5,3.9-1.5c0.1,0,0.3,0,0.4,0s0.2,0,0.3,0c-0.1,0.4-0.2,0.9-0.2,1.4s-0.1,1.1-0.1,1.8v1.4V78c0,0.3,0,0.5,0,0.8 l-0.4,0.4c-0.3-0.2-0.6-0.3-1-0.4c-0.4-0.1-0.8-0.2-1.3-0.2c-1.3,0-2.4,0.4-3.2,1.3c-0.8,0.9-1.2,1.9-1.2,3.1v1.8 c0,1.8,0,3.5,0.1,5.1c0,1.6,0.1,3.2,0.3,4.7c-0.4-0.1-0.9-0.1-1.4-0.1h-1.9h-1.9c-0.6,0-1.1,0-1.5,0.1c0.1-1.5,0.2-3,0.3-4.7 c0-1.6,0.1-3.3,0.1-5.1V83c0-1.8,0-3.5-0.1-5.1c0-1.6-0.1-3.2-0.3-4.8c0.5,0.1,1,0.1,1.5,0.2c0.5,0,1,0.1,1.5,0.1s1,0,1.5-0.1 c0.5,0,1-0.1,1.5-0.2L370.1,78.6L370.1,78.6z M360.5,74.5c0,0.4,0,0.8,0.1,1.1l-3.9-0.1c-0.1,0.7-0.1,1.5-0.2,2.4 c0,0.9-0.1,1.8-0.1,2.7s0,1.8,0,2.7s0,1.6,0,2.2c0,1.6,0,2.8,0.1,3.8s0.2,1.7,0.4,2.2c0.2,0.5,0.4,0.8,0.8,1 c0.3,0.2,0.7,0.3,1.3,0.3c0.6,0,1,0,1.3-0.1s0.5-0.2,0.8-0.3v1.8c-0.6,0.3-1.3,0.5-2.2,0.7c-0.9,0.2-1.8,0.3-2.6,0.3 c-3.8,0-5.7-2.3-5.7-6.8c0-0.9,0-1.8,0-2.9c0-1.1,0.1-2.2,0.1-3.4c0-1.1,0.1-2.3,0.1-3.4c0-1.1,0-2.2,0-3.1h-3.1 c0.1-0.4,0.1-0.7,0.1-1.1c0-0.4,0-0.8-0.1-1.2l3.1,0.1c0-0.9,0-1.8,0-2.6s-0.1-1.8-0.1-2.9c1-0.4,2.1-0.9,3.1-1.3c1-0.5,2-0.9,3-1.5 l0.4,0.3c-0.1,0.5-0.1,1-0.2,1.7c0,0.6-0.1,1.3-0.1,2s-0.1,1.4-0.1,2.1c0,0.7,0,1.4,0,2.1l3.9-0.1C360.5,73.7,360.5,74.1,360.5,74.5 M330.3,76.4c0.8-1.3,1.8-2.2,2.9-2.9s2.4-1,3.8-1c2.2,0,4,0.6,5.2,1.9c1.2,1.3,1.8,3.4,1.8,6.3c0,1.5,0,2.9-0.1,4 c-0.1,1.2-0.1,2.3-0.1,3.5c0,1,0,2,0.1,3.1c0,1.1,0.1,2.2,0.2,3.2c-0.4-0.1-0.9-0.1-1.5-0.1h-1.9h-1.9c-0.6,0-1.1,0-1.5,0.1 c0.2-1.6,0.3-3.4,0.4-5.5s0.1-4.5,0.1-7.2c0-1.9-0.3-3.3-1-4.1c-0.6-0.9-1.5-1.3-2.7-1.3c-1.3,0-2.3,0.6-3,1.7 c-0.6,1.2-0.9,2.8-0.9,4.8v1.8c0,1.8,0,3.5,0.1,5.1c0,1.6,0.1,3.2,0.3,4.7c-0.4-0.1-0.9-0.1-1.5-0.1h-1.8h-1.9c-0.6,0-1.1,0-1.5,0.1 c0.1-1.5,0.2-3,0.3-4.7c0-1.6,0.1-3.3,0.1-5.1v-1.8c0-1.8,0-3.5-0.1-5.1c0-1.6-0.1-3.2-0.3-4.8c0.5,0.1,1.1,0.1,1.6,0.2 c0.5,0,1.1,0.1,1.6,0.1s1.1,0,1.6-0.1c0.5,0,1.1-0.1,1.7-0.2L330.3,76.4L330.3,76.4z M318.1,88.2c-1-2.5-2.1-5.2-3.2-7.9 c-1.1-2.8-2.2-5.6-3.3-8.5c-1.1-2.9-2.1-5.6-3.1-8.1c-0.3,0.1-0.6,0.1-0.9,0.2c-0.3,0-0.6,0.1-0.9,0.1s-0.6,0-0.8-0.1 c-0.3,0-0.6-0.1-0.9-0.2c-0.7,1.7-1.4,3.5-2.2,5.5c-0.8,2-1.6,4-2.4,6s-1.6,4-2.5,6c-0.8,2-1.6,3.8-2.3,5.6s-1.4,3.3-2,4.7 s-1.1,2.4-1.4,3.2c0.4-0.1,0.8-0.1,1.2-0.1h1.1h1.1c0.3,0,0.7,0,1.1,0.1c0.4-1.5,0.9-3,1.4-4.5s1.1-3,1.7-4.6c0.8,0,1.6-0.1,2.3-0.1 c0.8,0,1.6,0,2.3,0c1,0,1.9,0,2.9,0s1.9,0,2.9,0.1c0.6,1.5,1.1,3,1.6,4.6c0.5,1.5,1,3,1.5,4.5c0.6-0.1,1.3-0.1,1.9-0.1h1.9h1.9 c0.6,0,1.3,0,2,0.1C320.1,92.8,319.2,90.7,318.1,88.2 M307.2,77.5c0.6,1.7,1.3,3.5,1.9,5.3h-8.2c0.7-1.8,1.3-3.6,2-5.3 s1.4-3.5,2.2-5.3C305.9,74,306.5,75.8,307.2,77.5"></path> <path class="st0" d="M226.6,96.3c20.1,0,43.8-10.3,43.8-33.5c0-17.5-12.9-24-26.5-31.4c-3.8-2-8.2-4.6-8.2-9.5 c0-3.7,2.8-5.5,6.2-5.5c8.8,0,11.6,13.7,21.2,13.7c6.1,0,10.3-5.4,10.3-11.2c0-6.9-6.5-18.9-14.3-18.9c-3.7,0-6.1,2.2-7.8,2.2 c-1.7,0-6.9-2.2-13.3-2.2c-18.2,0-35.9,10.8-35.9,30.6c0,25.2,31.4,30.1,31.4,41.7c0,5-4.4,7.5-8.8,7.5c-7.1,0-11.1-6.6-13.5-12.5 c-2-5.1-4-11.3-10.7-11.3c-7.1,0-10.3,5.8-10.3,12.3C190.3,88.1,209.2,96.3,226.6,96.3 M141.8,96.3c20.1,0,43.8-10.3,43.8-33.5 c0-17.5-12.9-24-26.5-31.4c-3.8-2-8.2-4.6-8.2-9.5c0-3.7,2.8-5.5,6.2-5.5c8.8,0,11.6,13.7,21.2,13.7c6.1,0,10.3-5.4,10.3-11.2 c0-6.9-6.5-18.9-14.3-18.9c-3.7,0-6.1,2.2-7.8,2.2c-1.7,0-6.9-2.2-13.3-2.2c-18.2,0-35.9,10.8-35.9,30.6c0,25.2,31.4,30.1,31.4,41.7 c0,5-4.4,7.5-8.8,7.5c-7.1,0-11.1-6.6-13.5-12.5c-2-5.1-4-11.3-10.7-11.3c-7.1,0-10.3,5.8-10.3,12.3 C105.5,88.1,124.4,96.3,141.8,96.3 M42.8,61.6c0.9-5.3,0.7-6.9,11.9-6.9c2.9,0,8.6,0.1,8.6,4.2c0,3.8-1.1,9-2.9,18.3 c-1.2,6.1-8,2.8-8,9.6c0,7.7,6.7,8.4,25.7,8.4c18.1,0,22.4-3.8,22.4-8.8c0-8.7-7.4-2.1-7.1-11.9c0.5-17,3.8-36.8,6.1-53.2 c1.3-10.2,9.8-4.5,9.8-13.2c0-4.5-2.8-7.5-20.5-7.5c-21.8,0-26.9,2.2-26.9,9c0,6.5,5.8,3.6,5.8,10.8c0,3-0.7,13.3-1.6,15.8 c-1.1,2.9-6.7,3.2-9.1,3.2c-12.3,0-11.2-2-11.2-3.8c0-2.8,0.7-7.4,1.7-14.3c1.2-7.7,9-5.3,9-12.9c0-4.8-3.3-7.8-19.3-7.8 c-30.7,0-28.8,8.6-28.8,10c0,7.3,7.5,3.3,7.5,11c0,13.3-1.6,35.6-7.5,55.7C7.2,81.3,0,81,0,86.8c0,7.7,8.7,8.4,24.8,8.4 c19.7,0,22.6-4.2,22.6-9c0-5.9-5.8-3.4-5.8-8.8L42.8,61.6"></path> </svg>